# xmcd
#
# Track frame offsets: 
#        150
#        17539
#        35914
#        50185
#        64668
#        80004
#        97475
#        113834
#        129330
#        146033
#        162668
#        180489
#        200375
#        214900
#
# Disc length: 3062 seconds
#
# Revision: 0
# Processed by: cddbd v1.5.2PL0 Copyright (c) Steve Scherf et al.
# Submitted via: ExactAudioCopyFreeDBPlugin 1.0
#
DISCID=d70bf40e
DTITLE=Musiq Soulchild - MusiqInTheMagiq
DYEAR=2011
DGENRE=R&B
TTITLE0=Anything
TTITLE1=Single
TTITLE2=Sayido
TTITLE3=Lovecontract
TTITLE4=Silver and Gold
TTITLE5=Waitingstill
TTITLE6=Backtowhere
TTITLE7=Do We Have To
TTITLE8=Befriends
TTITLE9=Yes
TTITLE10=Medicine
TTITLE11=Likethesun
TTITLE12=Clumsylove
TTITLE13=Goodgirl
EXTD=
EXTT0=
EXTT1=
EXTT2=
EXTT3=
EXTT4=
EXTT5=
EXTT6=
EXTT7=
EXTT8=
EXTT9=
EXTT10=
EXTT11=
EXTT12=
EXTT13=
PLAYORDER=
